<svg width="24" height="30" viewBox="0 0 24 30" fill="none" xmlns="http://www.w3.org/2000/svg">
<g filter="url(#filter0_d)">
<path d="M19.125 17H18.5625V9.03125C18.5625 5.72422 16.118 2.99141 12.9375 2.53672V1.625C12.9375 1.10703 12.518 0.6875 12 0.6875C11.482 0.6875 11.0625 1.10703 11.0625 1.625V2.53672C7.88203 2.99141 5.4375 5.72422 5.4375 9.03125V17H4.875C4.46016 17 4.125 17.3352 4.125 17.75V18.5C4.125 18.6031 4.20937 18.6875 4.3125 18.6875H9.375C9.375 20.1359 10.5516 21.3125 12 21.3125C13.4484 21.3125 14.625 20.1359 14.625 18.6875H19.6875C19.7906 18.6875 19.875 18.6031 19.875 18.5V17.75C19.875 17.3352 19.5398 17 19.125 17ZM12 19.8125C11.3789 19.8125 10.875 19.3086 10.875 18.6875H13.125C13.125 19.3086 12.6211 19.8125 12 19.8125ZM7.125 17V9.03125C7.125 7.72813 7.63125 6.50469 8.55234 5.58359C9.47344 4.6625 10.6969 4.15625 12 4.15625C13.3031 4.15625 14.5266 4.6625 15.4477 5.58359C16.3687 6.50469 16.875 7.72813 16.875 9.03125V17H7.125Z" fill="white"/>
</g>
<defs>
<filter id="filter0_d" x="0.125" y="0.6875" width="23.75" height="28.625" filterUnits="userSpaceOnUse" color-interpolation-filters="sRGB">
<feFlood flood-opacity="0" result="BackgroundImageFix"/>
<feColorMatrix in="SourceAlpha" type="matrix" values="0 0 0 0 0 0 0 0 0 0 0 0 0 0 0 0 0 0 127 0"/>
<feOffset dy="4"/>
<feGaussianBlur stdDeviation="2"/>
<feColorMatrix type="matrix" values="0 0 0 0 0 0 0 0 0 0 0 0 0 0 0 0 0 0 0.25 0"/>
<feBlend mode="normal" in2="BackgroundImageFix" result="effect1_dropShadow"/>
<feBlend mode="normal" in="SourceGraphic" in2="effect1_dropShadow" result="shape"/>
</filter>
</defs>
</svg>
