<svg width="30" height="30" viewBox="0 0 30 30" fill="none" xmlns="http://www.w3.org/2000/svg">
<g filter="url(#filter0_d)">
<path d="M13.8752 11C13.8752 11.2984 13.9937 11.5845 14.2047 11.7955C14.4157 12.0065 14.7018 12.125 15.0002 12.125C15.2986 12.125 15.5847 12.0065 15.7957 11.7955C16.0067 11.5845 16.1252 11.2984 16.1252 11C16.1252 10.7016 16.0067 10.4155 15.7957 10.2045C15.5847 9.99353 15.2986 9.875 15.0002 9.875C14.7018 9.875 14.4157 9.99353 14.2047 10.2045C13.9937 10.4155 13.8752 10.7016 13.8752 11ZM18.5627 11C18.5627 11.2984 18.6812 11.5845 18.8922 11.7955C19.1032 12.0065 19.3893 12.125 19.6877 12.125C19.9861 12.125 20.2722 12.0065 20.4832 11.7955C20.6942 11.5845 20.8127 11.2984 20.8127 11C20.8127 10.7016 20.6942 10.4155 20.4832 10.2045C20.2722 9.99353 19.9861 9.875 19.6877 9.875C19.3893 9.875 19.1032 9.99353 18.8922 10.2045C18.6812 10.4155 18.5627 10.7016 18.5627 11ZM9.18769 11C9.18769 11.2984 9.30622 11.5845 9.5172 11.7955C9.72818 12.0065 10.0143 12.125 10.3127 12.125C10.6111 12.125 10.8972 12.0065 11.1082 11.7955C11.3192 11.5845 11.4377 11.2984 11.4377 11C11.4377 10.7016 11.3192 10.4155 11.1082 10.2045C10.8972 9.99353 10.6111 9.875 10.3127 9.875C10.0143 9.875 9.72818 9.99353 9.5172 10.2045C9.30622 10.4155 9.18769 10.7016 9.18769 11ZM24.6846 6.93125C24.1549 5.67266 23.3955 4.54297 22.4275 3.57266C21.4663 2.60796 20.3253 1.84114 19.0689 1.31563C17.7799 0.774219 16.4111 0.5 15.0002 0.5H14.9533C13.533 0.507031 12.1572 0.788281 10.8635 1.34141C9.61791 1.87232 8.48753 2.64049 7.53535 3.60312C6.57676 4.57109 5.82441 5.69609 5.3041 6.95C4.76504 8.24844 4.49316 9.62891 4.50019 11.0492C4.50815 12.6769 4.89322 14.2806 5.62519 15.7344V19.2969C5.62519 19.5828 5.73878 19.857 5.94097 20.0592C6.14316 20.2614 6.41738 20.375 6.70332 20.375H10.2682C11.722 21.107 13.3257 21.492 14.9533 21.5H15.0025C16.4064 21.5 17.7682 21.2281 19.0502 20.6961C20.3002 20.1768 21.437 19.419 22.3971 18.4648C23.365 17.5063 24.1268 16.3859 24.6588 15.1367C25.2119 13.843 25.4932 12.4672 25.5002 11.0469C25.5072 9.61953 25.2307 8.23438 24.6846 6.93125ZM21.1432 17.1969C19.5002 18.8234 17.3205 19.7188 15.0002 19.7188H14.9604C13.5471 19.7117 12.1432 19.3602 10.9033 18.6992L10.7064 18.5938H7.40644V15.2938L7.30098 15.0969C6.64004 13.857 6.28848 12.4531 6.28144 11.0398C6.27207 8.70312 7.16504 6.50937 8.80332 4.85703C10.4393 3.20469 12.626 2.29062 14.9627 2.28125H15.0025C16.1744 2.28125 17.3111 2.50859 18.3822 2.95859C19.4275 3.39687 20.365 4.02734 21.1713 4.83359C21.9752 5.6375 22.608 6.57734 23.0463 7.62266C23.501 8.70547 23.7283 9.85391 23.7236 11.0398C23.7096 13.3742 22.7932 15.5609 21.1432 17.1969Z" fill="#002766"/>
</g>
<defs>
<filter id="filter0_d" x="0.500061" y="0.5" width="29.0003" height="29" filterUnits="userSpaceOnUse" color-interpolation-filters="sRGB">
<feFlood flood-opacity="0" result="BackgroundImageFix"/>
<feColorMatrix in="SourceAlpha" type="matrix" values="0 0 0 0 0 0 0 0 0 0 0 0 0 0 0 0 0 0 127 0"/>
<feOffset dy="4"/>
<feGaussianBlur stdDeviation="2"/>
<feColorMatrix type="matrix" values="0 0 0 0 0 0 0 0 0 0 0 0 0 0 0 0 0 0 0.25 0"/>
<feBlend mode="normal" in2="BackgroundImageFix" result="effect1_dropShadow"/>
<feBlend mode="normal" in="SourceGraphic" in2="effect1_dropShadow" result="shape"/>
</filter>
</defs>
</svg>
