<svg width="30" height="31" viewBox="0 0 30 31" fill="none" xmlns="http://www.w3.org/2000/svg">
<g filter="url(#filter0_d)">
<path d="M15 1.5C9.20156 1.5 4.5 6.20156 4.5 12C4.5 17.7984 9.20156 22.5 15 22.5C20.7984 22.5 25.5 17.7984 25.5 12C25.5 6.20156 20.7984 1.5 15 1.5ZM15 20.7188C10.1859 20.7188 6.28125 16.8141 6.28125 12C6.28125 7.18594 10.1859 3.28125 15 3.28125C19.8141 3.28125 23.7188 7.18594 23.7188 12C23.7188 16.8141 19.8141 20.7188 15 20.7188Z" fill="#002766"/>
<path d="M13.875 7.875C13.875 8.17337 13.9935 8.45952 14.2045 8.6705C14.4155 8.88147 14.7016 9 15 9C15.2984 9 15.5845 8.88147 15.7955 8.6705C16.0065 8.45952 16.125 8.17337 16.125 7.875C16.125 7.57663 16.0065 7.29048 15.7955 7.0795C15.5845 6.86853 15.2984 6.75 15 6.75C14.7016 6.75 14.4155 6.86853 14.2045 7.0795C13.9935 7.29048 13.875 7.57663 13.875 7.875ZM15.5625 10.5H14.4375C14.3344 10.5 14.25 10.5844 14.25 10.6875V17.0625C14.25 17.1656 14.3344 17.25 14.4375 17.25H15.5625C15.6656 17.25 15.75 17.1656 15.75 17.0625V10.6875C15.75 10.5844 15.6656 10.5 15.5625 10.5Z" fill="#002766"/>
</g>
<defs>
<filter id="filter0_d" x="-1" y="0" width="32" height="32" filterUnits="userSpaceOnUse" color-interpolation-filters="sRGB">
<feFlood flood-opacity="0" result="BackgroundImageFix"/>
<feColorMatrix in="SourceAlpha" type="matrix" values="0 0 0 0 0 0 0 0 0 0 0 0 0 0 0 0 0 0 127 0"/>
<feOffset dy="4"/>
<feGaussianBlur stdDeviation="2"/>
<feColorMatrix type="matrix" values="0 0 0 0 0 0 0 0 0 0 0 0 0 0 0 0 0 0 0.25 0"/>
<feBlend mode="normal" in2="BackgroundImageFix" result="effect1_dropShadow"/>
<feBlend mode="normal" in="SourceGraphic" in2="effect1_dropShadow" result="shape"/>
</filter>
</defs>
</svg>
