<svg width="28" height="28" viewBox="0 0 28 28" fill="none" xmlns="http://www.w3.org/2000/svg">
<g filter="url(#filter0_d)">
<path d="M22.9061 16.0937H21.0311V14.2187C21.0311 14.1156 20.9467 14.0312 20.8436 14.0312H19.7186C19.6155 14.0312 19.5311 14.1156 19.5311 14.2187V16.0937H17.6561C17.553 16.0937 17.4686 16.1781 17.4686 16.2812V17.4062C17.4686 17.5093 17.553 17.5937 17.6561 17.5937H19.5311V19.4687C19.5311 19.5718 19.6155 19.6562 19.7186 19.6562H20.8436C20.9467 19.6562 21.0311 19.5718 21.0311 19.4687V17.5937H22.9061C23.0092 17.5937 23.0936 17.5093 23.0936 17.4062V16.2812C23.0936 16.1781 23.0092 16.0937 22.9061 16.0937ZM10.7538 9.68122C10.7327 9.47731 10.7209 9.27106 10.7209 9.06247C10.7209 8.68981 10.7561 8.32653 10.8217 7.97263C10.8381 7.88825 10.7936 7.80153 10.7163 7.76638C10.3975 7.62341 10.1045 7.42653 9.85141 7.1781C9.55315 6.88889 9.31844 6.54069 9.16227 6.15571C9.0061 5.77073 8.93189 5.35742 8.94438 4.94216C8.96548 4.18981 9.26782 3.47497 9.79516 2.93591C10.3741 2.34294 11.1522 2.0195 11.9795 2.02888C12.7272 2.03591 13.4491 2.32419 13.9952 2.83513C14.1803 3.00856 14.3397 3.20075 14.4733 3.407C14.5202 3.47966 14.6116 3.51013 14.6913 3.482C15.1038 3.33903 15.5397 3.23825 15.9874 3.19138C16.1186 3.17731 16.1936 3.03669 16.135 2.9195C15.3733 1.41247 13.817 0.371845 12.017 0.34372C9.42016 0.303876 7.25454 2.43435 7.25454 5.03122C7.25454 6.5031 7.93188 7.8156 8.9936 8.67575C8.24829 9.02028 7.56157 9.49606 6.96626 10.0914C5.68188 11.3734 4.95532 13.0656 4.90844 14.8726C4.90782 14.8976 4.91221 14.9225 4.92135 14.9458C4.93049 14.9691 4.9442 14.9903 4.96168 15.0082C4.97915 15.0262 5.00003 15.0404 5.02309 15.0501C5.04615 15.0598 5.07092 15.0648 5.09595 15.0648H6.41079C6.51157 15.0648 6.59594 14.9851 6.59829 14.8843C6.64282 13.525 7.1936 12.2523 8.16157 11.2867C8.85063 10.5976 9.69438 10.1195 10.6155 9.88747C10.7045 9.86169 10.7655 9.77497 10.7538 9.68122ZM21.3124 9.06247C21.3124 6.49841 19.2522 4.41481 16.6975 4.37497C14.1006 4.33513 11.9374 6.4656 11.9374 9.06247C11.9374 10.5343 12.617 11.8468 13.6764 12.707C12.9234 13.0561 12.2379 13.5353 11.6514 14.1226C10.367 15.4047 9.64048 17.0968 9.5936 18.9015C9.59298 18.9265 9.59736 18.9514 9.60651 18.9747C9.61565 18.998 9.62936 19.0192 9.64683 19.0372C9.66431 19.0551 9.68519 19.0693 9.70825 19.079C9.73131 19.0887 9.75608 19.0937 9.7811 19.0937H11.0936C11.1944 19.0937 11.2788 19.014 11.2811 18.9132C11.3256 17.5539 11.8764 16.2812 12.8444 15.3156C13.8545 14.3054 15.1952 13.75 16.6249 13.75C19.2124 13.75 21.3124 11.6523 21.3124 9.06247ZM18.7459 11.1836C18.1788 11.7508 17.4264 12.0625 16.6249 12.0625C15.8233 12.0625 15.0709 11.7508 14.5038 11.1836C14.2207 10.902 13.9971 10.5665 13.8461 10.1969C13.6951 9.82733 13.6199 9.4312 13.6249 9.032C13.6319 8.26325 13.9389 7.52028 14.4756 6.9695C15.0381 6.39294 15.7905 6.07185 16.5944 6.06247C17.3889 6.05544 18.16 6.36481 18.7272 6.92028C19.3084 7.48981 19.6272 8.25153 19.6272 9.06247C19.6249 9.86403 19.3131 10.6164 18.7459 11.1836Z" fill="#002766"/>
</g>
<defs>
<filter id="filter0_d" x="0.908386" y="0.34317" width="26.1852" height="27.313" filterUnits="userSpaceOnUse" color-interpolation-filters="sRGB">
<feFlood flood-opacity="0" result="BackgroundImageFix"/>
<feColorMatrix in="SourceAlpha" type="matrix" values="0 0 0 0 0 0 0 0 0 0 0 0 0 0 0 0 0 0 127 0"/>
<feOffset dy="4"/>
<feGaussianBlur stdDeviation="2"/>
<feColorMatrix type="matrix" values="0 0 0 0 0 0 0 0 0 0 0 0 0 0 0 0 0 0 0.25 0"/>
<feBlend mode="normal" in2="BackgroundImageFix" result="effect1_dropShadow"/>
<feBlend mode="normal" in="SourceGraphic" in2="effect1_dropShadow" result="shape"/>
</filter>
</defs>
</svg>
